<svg width="795" height="294" viewBox="0 0 795 294" fill="none" xmlns="http://www.w3.org/2000/svg">
<path d="M761.398 59.4132H34.9706V254.173H761.398V59.4132Z" fill="#C6E8F2"/>
<path d="M35.5958 254.124H760.772C764.732 254.124 768.53 255.588 771.33 258.194C774.13 260.8 775.703 264.334 775.703 268.02V293.483H20.6644V268.02C20.6644 264.334 22.2375 260.8 25.0377 258.194C27.8379 255.588 31.6358 254.124 35.5958 254.124Z" fill="#F4E280"/>
<path d="M34.9706 120.877L761.398 93.122V59.4132H34.9706V120.877Z" fill="#C5E4ED"/>
<path d="M789.801 43.6623H4.97713C2.22834 43.6623 0 45.7361 0 48.2942V54.7813C0 57.3395 2.22834 59.4133 4.97713 59.4133H789.801C792.549 59.4133 794.778 57.3395 794.778 54.7813V48.2942C794.778 45.7361 792.549 43.6623 789.801 43.6623Z" fill="#F4E280"/>
<path d="M780.472 20.442H11.1273V43.6623H780.472V20.442Z" fill="#C6E8F2"/>
<path d="M11.1273 31.9733L780.472 26.7594V20.442H11.1273V31.9733Z" fill="#C5E4ED"/>
<path d="M789.801 0.701752H4.97713C2.22834 0.701752 0 2.77554 0 5.33368V16.0041C0 18.5622 2.22834 20.636 4.97713 20.636H789.801C792.549 20.636 794.778 18.5622 794.778 16.0041V5.33368C794.778 2.77554 792.549 0.701752 789.801 0.701752Z" fill="#F4E280"/>
</svg>
