<svg width="610" height="147" viewBox="0 0 610 147" fill="none" xmlns="http://www.w3.org/2000/svg">
<path d="M305.211 143.388C320.007 143.388 332.002 141.534 332.002 139.246C332.002 136.959 320.007 135.105 305.211 135.105C290.414 135.105 278.419 136.959 278.419 139.246C278.419 141.534 290.414 143.388 305.211 143.388Z" fill="#71CCB4"/>
<path d="M306.457 142.311C310.684 142.311 314.111 139.641 314.111 136.347C314.111 133.053 310.684 130.383 306.457 130.383C302.229 130.383 298.802 133.053 298.802 136.347C298.802 139.641 302.229 142.311 306.457 142.311Z" fill="#F4E280"/>
<path d="M306.812 0H304.142V69.5817H306.812V0Z" fill="#F7F7F7"/>
<path d="M307.703 70.7415V63.3691C306.101 62.3751 304.499 62.3751 302.897 63.3691V70.7415C281.712 71.984 264.979 89.8764 264.979 111.745C264.979 134.442 272.189 146.039 305.3 146.039C338.411 146.039 345.621 134.359 345.621 111.745C345.532 89.8764 328.798 71.984 307.703 70.7415ZM305.211 143.471C290.435 143.471 278.419 141.566 278.419 139.329C278.419 137.01 290.435 135.187 305.211 135.187C319.986 135.187 332.002 137.093 332.002 139.329C331.913 141.566 319.986 143.471 305.211 143.471Z" fill="#9BD8C9"/>
<path d="M329.51 84.9063C329.332 84.9063 329.154 84.8234 328.976 84.6578C325.593 78.8593 312.598 75.2145 312.509 75.2145C312.242 75.1317 312.064 74.8832 312.153 74.5519C312.242 74.3034 312.509 74.1377 312.865 74.2205C313.399 74.3862 326.395 77.9481 330.044 84.1608C330.222 84.4093 330.133 84.7406 329.777 84.8234C329.688 84.9063 329.599 84.9063 329.51 84.9063Z" fill="#DCF9F1"/>
<path d="M331.913 89.3794C331.646 89.3794 331.379 89.1309 331.379 88.8824C331.379 88.0541 330.756 87.5571 330.756 87.5571C330.578 87.3914 330.489 87.06 330.756 86.8115C330.934 86.6459 331.29 86.563 331.557 86.8115C331.557 86.8115 332.447 87.6399 332.536 88.8824C332.536 89.1309 332.269 89.3794 331.913 89.3794Z" fill="#DCF9F1"/>
<path d="M41.2096 143.388C56.0063 143.388 68.0013 141.534 68.0013 139.246C68.0013 136.959 56.0063 135.105 41.2096 135.105C26.413 135.105 14.4179 136.959 14.4179 139.246C14.4179 141.534 26.413 143.388 41.2096 143.388Z" fill="#71CCB4"/>
<path d="M42.456 142.311C46.6836 142.311 50.1108 139.641 50.1108 136.347C50.1108 133.053 46.6836 130.383 42.456 130.383C38.2284 130.383 34.8012 133.053 34.8012 136.347C34.8012 139.641 38.2284 142.311 42.456 142.311Z" fill="#F4E280"/>
<path d="M42.8122 0H40.1419V69.5817H42.8122V0Z" fill="#F7F7F7"/>
<path d="M43.7025 70.7414V63.3691C42.1003 62.375 40.4981 62.375 38.896 63.3691V70.7414C17.7119 71.9839 0.978203 89.8764 0.978203 111.745C0.978203 134.442 8.18792 146.039 41.2992 146.039C74.4105 146.039 81.6203 134.359 81.6203 111.745C81.5312 89.8764 64.7976 71.9839 43.7025 70.7414ZM41.2102 143.471C26.4347 143.471 14.4185 141.566 14.4185 139.329C14.4185 137.01 26.4347 135.187 41.2102 135.187C55.9857 135.187 68.0019 137.093 68.0019 139.329C67.9129 141.566 55.9857 143.471 41.2102 143.471Z" fill="#9BD8C9"/>
<path d="M65.5092 84.9063C65.3312 84.9063 65.1532 84.8234 64.9751 84.6578C61.5928 78.8593 48.5975 75.2145 48.5085 75.2145C48.2415 75.1317 48.0635 74.8832 48.1525 74.5518C48.2415 74.3033 48.5085 74.1377 48.8645 74.2205C49.3986 74.3862 62.3939 77.9481 66.0432 84.1607C66.2213 84.4092 66.1323 84.7406 65.7762 84.8234C65.6872 84.9063 65.5982 84.9063 65.5092 84.9063Z" fill="#DCF9F1"/>
<path d="M67.9125 89.3794C67.6455 89.3794 67.3784 89.1309 67.3784 88.8824C67.3784 88.0541 66.7554 87.5571 66.7554 87.5571C66.5774 87.3914 66.4884 87.06 66.7554 86.8115C66.9334 86.6459 67.2894 86.563 67.5565 86.8115C67.5565 86.8115 68.4466 87.6399 68.5356 88.8824C68.5356 89.1309 68.2685 89.3794 67.9125 89.3794Z" fill="#DCF9F1"/>
<path d="M569.211 143.388C584.007 143.388 596.002 141.534 596.002 139.246C596.002 136.959 584.007 135.105 569.211 135.105C554.414 135.105 542.419 136.959 542.419 139.246C542.419 141.534 554.414 143.388 569.211 143.388Z" fill="#71CCB4"/>
<path d="M570.456 142.311C574.684 142.311 578.111 139.641 578.111 136.347C578.111 133.053 574.684 130.383 570.456 130.383C566.229 130.383 562.802 133.053 562.802 136.347C562.802 139.641 566.229 142.311 570.456 142.311Z" fill="#F4E280"/>
<path d="M570.813 0H568.143V69.5817H570.813V0Z" fill="#F7F7F7"/>
<path d="M571.703 70.7414V63.3691C570.101 62.375 568.499 62.375 566.897 63.3691V70.7414C545.712 71.9839 528.979 89.8764 528.979 111.745C528.979 134.442 536.188 146.039 569.3 146.039C602.411 146.039 609.621 134.359 609.621 111.745C609.532 89.8764 592.798 71.9839 571.703 70.7414ZM569.211 143.471C554.435 143.471 542.419 141.566 542.419 139.329C542.419 137.01 554.435 135.187 569.211 135.187C583.986 135.187 596.002 137.093 596.002 139.329C595.913 141.566 583.986 143.471 569.211 143.471Z" fill="#9BD8C9"/>
<path d="M593.51 84.9063C593.332 84.9063 593.154 84.8234 592.976 84.6578C589.593 78.8593 576.598 75.2145 576.509 75.2145C576.242 75.1317 576.064 74.8832 576.153 74.5518C576.242 74.3033 576.509 74.1377 576.865 74.2205C577.399 74.3862 590.395 77.9481 594.044 84.1607C594.222 84.4092 594.133 84.7406 593.777 84.8234C593.688 84.9063 593.599 84.9063 593.51 84.9063Z" fill="#DCF9F1"/>
<path d="M595.913 89.3794C595.646 89.3794 595.379 89.1309 595.379 88.8824C595.379 88.0541 594.756 87.5571 594.756 87.5571C594.578 87.3914 594.489 87.06 594.756 86.8115C594.934 86.6459 595.29 86.563 595.557 86.8115C595.557 86.8115 596.447 87.6399 596.536 88.8824C596.536 89.1309 596.269 89.3794 595.913 89.3794Z" fill="#DCF9F1"/>
</svg>
