<svg width="348" height="141" viewBox="0 0 348 141" fill="none" xmlns="http://www.w3.org/2000/svg">
<g filter="url(#filter0_i)">
<path d="M33.0029 135.39L7.94916 135.199C14.9085 108.044 19.6796 86.0098 22.8577 69.4783C23.631 65.1464 24.6517 60.8222 25.6415 56.8883C16.5015 67.7103 6.75833 79.711 6.75833 79.711L0 71.4452C0 71.4452 20.1049 47.6353 33.5983 29.9328C36.3821 22.8456 39.7613 17.1387 43.7358 12.8119L58.4279 21.2767C58.4279 21.2767 56.2395 24.2233 52.466 28.5551C48.8858 39.1782 47.0995 54.1331 43.7204 70.8559C39.1659 92.4999 36.181 111.978 33.0029 135.39Z" fill="#F4E280"/>
<path d="M130.009 60.8222C121.859 106.468 82.6001 141 58.5439 141L57.5464 123.091C73.4524 123.091 93.0315 102.143 99.7898 82.2672C93.9186 85.5776 87.261 87.2765 80.5046 87.1884C65.4027 87.1884 52.2804 77.744 57.0515 50.7885C61.6215 25.2106 81.1077 12.4216 101.383 12.4216C129.213 12.4216 134.78 33.8666 130.009 60.8222ZM106.749 50.5895C109.332 36.8132 105.752 25.4019 98.8 25.4019C91.8484 25.4019 84.108 36.8132 81.5021 50.5895C79.1205 64.5571 82.894 75.7694 89.8534 75.7694C96.8127 75.7694 104.391 64.5571 106.749 50.5895Z" fill="#F4E280"/>
<path d="M195.404 101.554C190.44 128.701 171.355 139.921 151.073 139.921C130.79 139.921 122.462 126.145 125.037 111.389C126.253 104.618 129.043 98.219 133.187 92.6989L151.073 100.352C148.193 103.577 146.269 107.526 145.513 111.764C144.314 119.241 146.704 126.719 154.019 126.719C161.179 126.719 166.94 119.831 169.523 105.289C172.105 90.7473 171.116 79.3206 163.337 79.3206C156.779 79.3206 151.614 84.2342 147.237 89.1554L134.092 80.8896C139.265 69.2793 143.24 52.3574 145.428 38.5888L148.212 15.9575C165.788 20.4884 189.45 20.4884 207.931 13.7763L205.348 39.9435C190.488 42.8049 175.29 43.5344 160.22 42.1094C157.839 53.3218 154.653 63.9448 151.475 70.6339C151.475 70.6339 159.207 65.3224 171.951 65.3224C187.254 65.3454 200.175 74.7898 195.404 101.554Z" fill="#F4E280"/>
<path d="M277.161 33.4227C273.805 18.751 265.006 11.993 251.466 11.993C228.206 11.993 211.704 31.4711 203.755 76.5348C195.798 121.392 205.147 140.87 228.399 140.87C251.466 140.87 267.959 121.392 275.916 76.5348C277.223 69.3525 278.096 62.0994 278.53 54.8142L268.818 55.8704C272.019 48.5475 274.805 41.0533 277.161 33.4227ZM251.466 75.0041C245.496 109.039 238.939 125.18 231.183 125.18C223.234 125.18 222.638 109.039 228.6 75.0041C234.786 40.9614 241.32 24.6366 249.277 24.6366C257.025 24.6212 257.621 40.9461 251.466 75.0041Z" fill="#F4E280"/>
<path d="M289.255 1.69142C286.232 17.1285 279.976 37.8235 274.285 51.2477L285.737 50.069C293.222 39.668 303.97 17.603 310.195 0L289.255 1.69142Z" fill="#F4E280"/>
<path d="M346.423 107.455C341.651 134.609 318.392 140.901 309.051 140.901C294.536 140.901 288.373 128.112 289.966 119.256C291.513 110.6 310.442 96.6328 309.244 102.143C306.267 114.144 305.269 126.933 312.028 126.933C315.809 126.933 319.985 120.443 321.771 110.21C324.949 92.1096 319.784 77.744 317.997 61.9932C313.621 73.8025 309.445 84.4255 306.862 90.1273L302.091 87.1808C308.649 71.8738 314.811 55.8933 317.997 41.5354L318.392 39.7598C321.376 23.037 330.516 15.3605 330.516 15.3605L347.969 18.5214C347.969 18.5214 341.605 28.1571 339.811 38.5888C336.069 59.8349 350.977 82.6575 346.423 107.455Z" fill="#F4E280"/>
</g>
<defs>
<filter id="filter0_i" x="0" y="0" width="348" height="141" filterUnits="userSpaceOnUse" color-interpolation-filters="sRGB">
<feFlood flood-opacity="0" result="BackgroundImageFix"/>
<feBlend mode="normal" in="SourceGraphic" in2="BackgroundImageFix" result="shape"/>
<feColorMatrix in="SourceAlpha" type="matrix" values="0 0 0 0 0 0 0 0 0 0 0 0 0 0 0 0 0 0 127 0" result="hardAlpha"/>
<feOffset dy="4"/>
<feComposite in2="hardAlpha" operator="arithmetic" k2="-1" k3="1"/>
<feColorMatrix type="matrix" values="0 0 0 0 0 0 0 0 0 0 0 0 0 0 0 0 0 0 0.25 0"/>
<feBlend mode="normal" in2="shape" result="effect1_innerShadow"/>
</filter>
</defs>
</svg>
