<svg width="122" height="50" viewBox="0 0 122 50" fill="none" xmlns="http://www.w3.org/2000/svg">
<path d="M11.57 48.0106L2.78677 47.9428C5.22656 38.3135 6.89916 30.4999 8.01333 24.6377C8.28442 23.1016 8.64225 21.5682 8.98925 20.1732C5.785 24.0108 2.3693 28.2663 2.3693 28.2663L0 25.3352C0 25.3352 7.04826 16.8919 11.7787 10.6145C12.7546 8.1013 13.9393 6.07756 15.3327 4.54324L20.4833 7.54493C20.4833 7.54493 19.7162 8.58982 18.3933 10.1259C17.1381 13.893 16.5119 19.1961 15.3273 25.1262C13.7306 32.8014 12.6842 39.7085 11.57 48.0106Z" fill="white"/>
<path d="M45.5779 21.5681C42.7206 37.7544 28.9575 50 20.524 50L20.1743 43.6492C25.7506 43.6492 32.6145 36.221 34.9838 29.1728C32.9255 30.3467 30.5915 30.9491 28.2229 30.9179C22.9285 30.9179 18.3282 27.5688 20.0008 18.0101C21.6029 8.93991 28.4343 4.40482 35.5422 4.40482C45.2986 4.40482 47.2505 12.0094 45.5779 21.5681ZM37.4236 17.9395C38.329 13.0543 37.0739 9.00776 34.6368 9.00776C32.1997 9.00776 29.4861 13.0543 28.5726 17.9395C27.7376 22.8926 29.0605 26.8686 31.5003 26.8686C33.9401 26.8686 36.5968 22.8926 37.4236 17.9395Z" fill="white"/>
<path d="M68.5037 36.012C66.7633 45.6386 60.0729 49.6173 52.9623 49.6173C45.8517 49.6173 42.9321 44.7321 43.8348 39.4995C44.261 37.0984 45.2392 34.8294 46.692 32.872L52.9623 35.5859C51.9529 36.7294 51.2784 38.1297 51.0132 39.6325C50.593 42.2841 51.4306 44.9357 53.9951 44.9357C56.5054 44.9357 58.525 42.4931 59.4304 37.3365C60.3358 32.1799 59.9888 28.1279 57.2617 28.1279C54.9629 28.1279 53.152 29.8703 51.6177 31.6154L47.0092 28.6842C48.8228 24.5671 50.2162 18.5665 50.9833 13.684L51.9592 5.65868C58.1211 7.26537 66.4163 7.26537 72.8953 4.88519L71.9899 14.1644C66.7805 15.179 61.4523 15.4377 56.1692 14.9324C55.3343 18.9084 54.2174 22.6755 53.1032 25.0475C53.1032 25.0475 55.8141 23.164 60.2816 23.164C65.6464 23.1721 70.1763 26.5212 68.5037 36.012Z" fill="white"/>
<path d="M97.1657 11.852C95.9892 6.64928 92.9042 4.25282 88.1575 4.25282C80.0032 4.25282 74.2182 11.1599 71.4314 27.14C68.6419 43.0467 71.9194 49.9538 80.071 49.9538C88.1575 49.9538 93.9398 43.0467 96.7293 27.14C97.1874 24.5931 97.4934 22.021 97.6455 19.4376L94.2407 19.8122C95.363 17.2154 96.3395 14.5579 97.1657 11.852ZM88.1575 26.5972C86.0647 38.6663 83.7659 44.3901 81.0469 44.3901C78.2601 44.3901 78.0514 38.6663 80.1415 26.5972C82.3101 14.5253 84.6008 8.73635 87.3903 8.73635C90.1066 8.73092 90.3153 14.5199 88.1575 26.5972Z" fill="white"/>
<path d="M101.406 0.599794C100.346 6.07393 98.1525 13.4126 96.1573 18.1729L100.172 17.755C102.796 14.0667 106.564 6.2422 108.747 0L101.406 0.599794Z" fill="white"/>
<path d="M121.447 38.1045C119.774 47.7338 111.62 49.9647 108.345 49.9647C103.257 49.9647 101.096 45.4296 101.655 42.2895C102.197 39.22 108.833 34.2669 108.413 36.221C107.369 40.4766 107.02 45.0117 109.389 45.0117C110.715 45.0117 112.179 42.7102 112.805 39.0816C113.919 32.663 112.108 27.5688 111.482 21.9834C109.947 26.1711 108.484 29.9381 107.578 31.96L105.906 30.9152C108.204 25.4872 110.365 19.8203 111.482 14.7289L111.62 14.0992C112.666 8.16913 115.871 5.44699 115.871 5.44699L121.989 6.56787C121.989 6.56787 119.758 9.9848 119.129 13.684C117.817 21.218 123.044 29.3112 121.447 38.1045Z" fill="white"/>
</svg>
