<svg xmlns="http://www.w3.org/2000/svg" viewBox="0 0 531.57 215.77"><defs><style>.cls-1{fill:#d9d9d9;}.cls-2{fill:#f8c1c1;}.cls-3{fill:#cfcfcf;}.cls-4{fill:#f4e27f;}.cls-5{fill:#9dd2c6;}</style></defs><title>seat-multi</title><g id="Layer_2" data-name="Layer 2"><g id="seats"><path class="cls-1" d="M130.27,15.49H9.91C5.25,15.49,0,17.28,0,21.94v13a8.49,8.49,0,0,0,8.46,8.46H131.4a8.49,8.49,0,0,0,8.47-8.46V22.8C139.87,18.14,134.92,15.49,130.27,15.49Z"/><path class="cls-2" d="M6.7,15.49C6.7,8.47,12.43,0,19.45,0H120c7,0,13.14,8.47,13.14,15.49Z"/><path class="cls-3" d="M7.46,43.11c-.35,0,1.09,3.73,2.29,6.65.89,2.17,3.45,2.5,5.8,2.54,17.8.24,91.16,1.21,108.77.64a5.59,5.59,0,0,0,4.79-3l3.35-6.55C132.47,42.65,10.88,42.86,7.46,43.11Z"/><path class="cls-1" d="M26,52.29s13,9,15.32,9.1c13.85.36,32.52.63,55.28.63,3.55,0,14.72-9.06,14.72-9.06C105.71,52.91,31.18,52.29,26,52.29Z"/><path class="cls-3" d="M134,198c0,9.83-28.9,17.8-64.55,17.8S4.87,207.8,4.87,198s28.9-17.79,64.55-17.79S134,188.14,134,198Z"/><ellipse class="cls-1" cx="69.42" cy="191.36" rx="48.75" ry="12.3"/><path class="cls-3" d="M81.88,61.71v128s-4.51,1.67-12.46,1.67S57,189.69,57,189.69v-128Z"/><path class="cls-1" d="M327.56,15.49H207.2c-4.66,0-9.91,1.79-9.91,6.45v13a8.49,8.49,0,0,0,8.47,8.46H328.69a8.49,8.49,0,0,0,8.47-8.46V22.8C337.16,18.14,332.21,15.49,327.56,15.49Z"/><path class="cls-4" d="M204,15.49C204,8.47,209.72,0,216.74,0H317.33c7,0,13.13,8.47,13.13,15.49Z"/><path class="cls-3" d="M204.76,43.11c-.36,0,1.08,3.73,2.28,6.65.89,2.17,3.45,2.5,5.8,2.54,17.8.24,91.16,1.21,108.77.64a5.59,5.59,0,0,0,4.79-3l3.35-6.55C329.76,42.65,208.18,42.86,204.76,43.11Z"/><path class="cls-1" d="M223.32,52.29s13,9,15.32,9.1c13.85.36,32.53.63,55.28.63,3.55,0,14.72-9.06,14.72-9.06C303,52.91,228.48,52.29,223.32,52.29Z"/><path class="cls-3" d="M331.26,198c0,9.83-28.9,17.8-64.55,17.8s-64.55-8-64.55-17.8,28.9-17.79,64.55-17.79S331.26,188.14,331.26,198Z"/><ellipse class="cls-1" cx="266.71" cy="191.36" rx="48.75" ry="12.3"/><path class="cls-3" d="M279.17,61.71v128s-4.51,1.67-12.46,1.67-12.46-1.67-12.46-1.67v-128Z"/><path class="cls-1" d="M522,15.49H401.62c-4.66,0-9.91,1.79-9.91,6.45v13a8.49,8.49,0,0,0,8.46,8.46H523.11a8.49,8.49,0,0,0,8.46-8.46V22.8C531.57,18.14,526.63,15.49,522,15.49Z"/><path class="cls-5" d="M398.4,15.49c0-7,5.74-15.49,12.76-15.49H511.74c7,0,13.14,8.47,13.14,15.49Z"/><path class="cls-3" d="M399.17,43.11c-.35,0,1.09,3.73,2.28,6.65.89,2.17,3.46,2.5,5.81,2.54,17.8.24,91.16,1.21,108.76.64a5.59,5.59,0,0,0,4.8-3l3.35-6.55C524.18,42.65,402.59,42.86,399.17,43.11Z"/><path class="cls-1" d="M417.73,52.29s13,9,15.33,9.1c13.85.36,32.52.63,55.27.63,3.55,0,14.73-9.06,14.73-9.06C497.42,52.91,422.89,52.29,417.73,52.29Z"/><path class="cls-3" d="M525.68,198c0,9.83-28.9,17.8-64.55,17.8s-64.55-8-64.55-17.8,28.9-17.79,64.55-17.79S525.68,188.14,525.68,198Z"/><ellipse class="cls-1" cx="461.13" cy="191.36" rx="48.75" ry="12.3"/><path class="cls-3" d="M473.59,61.71v128s-4.51,1.67-12.46,1.67-12.47-1.67-12.47-1.67v-128Z"/></g></g></svg>